<?xml version="1.0" encoding="UTF-8"?>
<svg xmlns="http://www.w3.org/2000/svg" id="a" viewBox="0 0 70 70">
  <defs>
    <style>.b{fill:#3f3f3f;}</style>
  </defs>
  <g>
    <path class="b" d="M29.06,21.58h-9.24c-.39,0-.7-.31-.7-.7s.31-.7,.7-.7h9.24c.39,0,.7,.31,.7,.7s-.31,.7-.7,.7Z"></path>
    <path class="b" d="M24.49,25.79h-3.04c-.39,0-.7-.31-.7-.7s.31-.7,.7-.7h3.04c.39,0,.7,.31,.7,.7s-.31,.7-.7,.7Z"></path>
    <path class="b" d="M29.6,29.99h-9.85c-.39,0-.7-.31-.7-.7s.31-.7,.7-.7h9.85c.39,0,.7,.31,.7,.7s-.31,.7-.7,.7Z"></path>
    <path class="b" d="M24.83,34.2h-3.38c-.39,0-.7-.31-.7-.7s.31-.7,.7-.7h3.38c.39,0,.7,.31,.7,.7s-.31,.7-.7,.7Z"></path>
    <path class="b" d="M30.27,38.4h-10.88c-.39,0-.7-.31-.7-.7s.31-.7,.7-.7h10.88c.39,0,.7,.31,.7,.7s-.31,.7-.7,.7Z"></path>
  </g>
  <g>
    <path class="b" d="M56.66,42.66s-.01,0-.02,0H13.36c-.19,0-.37-.08-.5-.21-.13-.14-.2-.32-.2-.51l.84-24.96c.01-.38,.32-.68,.7-.68H55.85c.38,0,.69,.3,.7,.68l.78,24.8c.02,.06,.03,.12,.03,.19,0,.39-.31,.7-.7,.7Zm-42.57-1.4H55.91l-.74-23.56H14.88l-.79,23.56Z"></path>
    <path class="b" d="M57.96,53.7H12.04c-1.2,0-2.17-.97-2.17-2.17v-.62c0-.92,.16-1.83,.47-2.7l2.36-6.57c.1-.28,.36-.46,.66-.46H56.64c.3,0,.56,.19,.66,.46l2.36,6.57c.31,.87,.47,1.78,.47,2.7v.62c0,1.2-.97,2.17-2.17,2.17ZM13.86,42.57l-2.2,6.11c-.26,.72-.39,1.47-.39,2.23v.62c0,.43,.35,.77,.77,.77H57.96c.43,0,.77-.35,.77-.77v-.62c0-.76-.13-1.51-.39-2.23l-2.2-6.11H13.86Z"></path>
    <path class="b" d="M36.14,49.99h-2.29c-.39,0-.7-.31-.7-.7s.31-.7,.7-.7h2.29c.39,0,.7,.31,.7,.7s-.31,.7-.7,.7Z"></path>
    <path class="b" d="M53.01,46.46H16.99c-.39,0-.7-.31-.7-.7s.31-.7,.7-.7H53.01c.39,0,.7,.31,.7,.7s-.31,.7-.7,.7Z"></path>
  </g>
  <g>
    <path class="b" d="M44.08,38.86c-.11,0-.22-.03-.32-.08l-4.45-2.26c-1.56-.8-2.5-2.32-2.44-3.97l.35-9.35c.01-.3,.21-.56,.49-.64l6.16-1.9c.13-.04,.28-.04,.41,0l6.16,1.9c.28,.09,.48,.35,.49,.64l.35,9.35c.06,1.66-.87,3.18-2.43,3.97l-4.45,2.26c-.1,.05-.21,.08-.32,.08Zm-5.48-15.12l-.33,8.85c-.04,1.1,.6,2.13,1.67,2.67l4.13,2.1,4.13-2.1c1.07-.55,1.71-1.57,1.67-2.67l-.33-8.85-5.47-1.69-5.48,1.69Z"></path>
    <path class="b" d="M43.65,32.9c-.19,0-.38-.08-.51-.22l-2.9-3.06c-.27-.28-.25-.72,.03-.99,.28-.26,.72-.25,.99,.03l2.34,2.47,3.22-4.11c.24-.3,.68-.36,.98-.12,.3,.24,.36,.68,.12,.98l-3.73,4.75c-.13,.16-.31,.26-.52,.27h-.03Z"></path>
  </g>
</svg>
